<?xml version="1.0" standalone="no"?>
<!DOCTYPE svg PUBLIC "-//W3C//DTD SVG 20010904//EN"
 "http://www.w3.org/TR/2001/REC-SVG-20010904/DTD/svg10.dtd">
<svg version="1.0" xmlns="http://www.w3.org/2000/svg"
 width="640.000000pt" height="1280.000000pt" viewBox="0 0 640.000000 1280.000000"
 preserveAspectRatio="xMidYMid meet">
<metadata>
Created by potrace 1.15, written by Peter Selinger 2001-2017
</metadata>
<g transform="translate(0.000000,1280.000000) scale(0.100000,-0.100000)"
fill="#3f51b5" stroke="none">
<path d="M2191 12785 c-123 -35 -319 -160 -384 -247 -117 -155 -139 -299 -86
-573 24 -125 24 -120 -6 -133 -58 -27 -46 -132 35 -299 59 -120 81 -141 135
-123 20 7 38 10 41 8 2 -3 9 -31 15 -64 6 -32 28 -94 50 -136 27 -53 39 -89
38 -115 -2 -56 -13 -99 -24 -94 -6 3 -38 -40 -72 -95 l-62 -99 -118 -56 c-65
-31 -159 -83 -210 -117 -115 -78 -319 -194 -398 -227 l-60 -26 -91 -158 c-80
-140 -100 -185 -169 -386 l-78 -228 36 -158 37 -159 -75 -300 c-41 -165 -75
-310 -75 -323 0 -14 7 -43 15 -66 13 -39 13 -46 -10 -109 -30 -84 -44 -266
-24 -303 7 -13 13 -31 13 -39 1 -9 33 -57 71 -108 63 -84 79 -99 162 -147 l91
-55 69 40 c110 64 172 82 306 88 l117 5 0 -69 c0 -38 7 -91 15 -118 8 -26 13
-51 11 -55 -3 -4 -27 -22 -55 -41 -34 -24 -54 -46 -65 -73 l-15 -39 100 -107
101 -106 -6 -117 c-5 -84 -19 -176 -51 -319 l-44 -200 25 -442 c20 -360 41
-586 108 -1222 l83 -780 -59 -610 -59 -610 11 -235 c6 -129 15 -323 20 -430 5
-107 14 -307 20 -445 17 -400 5 -351 116 -484 79 -95 94 -119 94 -148 0 -30
-11 -211 -24 -386 l-4 -58 34 7 34 6 0 -108 c0 -114 -8 -152 -101 -476 -21
-75 -39 -145 -39 -156 0 -24 64 -82 135 -122 76 -42 204 -48 419 -19 91 12
169 25 175 28 16 10 14 315 -3 516 -20 224 -34 448 -30 456 2 4 24 10 49 13
l45 7 0 57 c0 31 -4 129 -10 217 -44 746 -56 1540 -27 1885 58 699 106 1114
172 1510 26 151 83 441 88 447 2 1 9 -64 16 -145 11 -134 56 -552 96 -890 20
-173 23 -339 6 -370 -7 -13 -23 -27 -37 -32 -23 -9 -24 -13 -24 -97 0 -49 -5
-317 -11 -598 l-11 -510 35 -325 c27 -256 33 -340 27 -397 -17 -142 -31 -470
-25 -548 8 -102 29 -176 59 -212 l24 -28 -34 -215 c-43 -276 -43 -270 -1 -270
17 0 162 -9 320 -20 212 -15 316 -26 395 -44 317 -73 361 -80 522 -80 l155 -1
155 48 c275 86 314 118 234 194 -82 77 -95 82 -414 163 -63 17 -134 30 -157
30 -24 0 -43 4 -43 8 0 6 -292 276 -370 341 -17 14 -21 23 -14 28 8 6 2 93
-22 313 -28 256 -35 363 -42 670 l-9 365 55 505 54 505 91 265 91 265 7 525
c5 411 12 601 32 874 l25 350 -84 415 -83 416 -72 165 -71 165 1 145 c1 80 4
160 7 178 4 21 2 32 -5 32 -7 0 2 18 19 39 l32 39 -5 194 c-3 106 -8 204 -12
218 -6 22 -2 28 30 43 19 9 50 17 67 17 20 0 45 12 73 34 44 36 157 87 284
127 98 31 133 64 291 269 148 192 205 246 309 297 61 29 88 37 148 39 88 4
145 29 215 93 49 46 61 74 44 112 -6 13 30 20 266 53 150 21 285 40 299 43
l25 5 12 436 c16 542 29 1010 38 1251 l6 183 -349 -7 c-191 -4 -529 -10 -750
-14 -222 -4 -405 -9 -407 -12 -2 -2 -33 -420 -68 -929 l-63 -924 -60 -13 c-33
-7 -68 -12 -78 -13 -17 0 -17 2 2 29 l20 28 -35 119 c-26 89 -55 244 -112 609
l-77 490 -83 131 -83 131 -67 31 c-37 16 -159 73 -272 124 -207 96 -314 138
-349 138 -14 0 -21 10 -25 35 -5 24 -27 56 -69 102 l-62 66 -3 101 c-3 92 -1
107 23 161 14 33 37 114 51 180 19 93 30 125 49 145 21 22 29 49 45 141 11 63
20 143 20 177 0 54 -3 65 -19 69 -17 4 -20 19 -26 161 -13 316 -36 388 -170
530 -115 122 -215 166 -405 177 -68 4 -110 1 -149 -10z m2852 -3926 c-12 -12
-123 -27 -111 -15 3 4 28 11 55 16 69 11 68 11 56 -1z m-543 -75 c0 -4 -16
-28 -35 -55 -39 -52 -62 -64 -103 -54 -34 8 -135 65 -128 72 3 3 58 14 123 23
143 22 143 22 143 14z m-340 -84 c7 -22 11 -43 7 -46 -3 -4 -27 11 -53 32 -45
37 -46 39 -23 45 47 14 56 10 69 -31z m-2665 0 c4 -6 -11 -10 -37 -9 -36 1
-39 2 -18 9 36 11 48 11 55 0z m2485 -60 c6 -11 9 -20 7 -20 -2 0 -12 9 -22
20 -10 11 -13 20 -7 20 6 0 16 -9 22 -20z m45 -72 l18 -32 -31 23 c-18 12 -30
27 -27 32 10 16 20 10 40 -23z"/>
</g>
</svg>
