<?xml version="1.0" standalone="no"?>
<!DOCTYPE svg PUBLIC "-//W3C//DTD SVG 20010904//EN"
 "http://www.w3.org/TR/2001/REC-SVG-20010904/DTD/svg10.dtd">
<svg version="1.0" xmlns="http://www.w3.org/2000/svg"
 width="640.000000pt" height="1280.000000pt" viewBox="0 0 640.000000 1280.000000"
 preserveAspectRatio="xMidYMid meet">
<metadata>
Created by potrace 1.15, written by Peter Selinger 2001-2017
</metadata>
<g transform="translate(0.000000,1280.000000) scale(0.100000,-0.100000)"
fill="#3f51b5" stroke="none">
<path d="M3755 12790 c-39 -6 -74 -21 -145 -61 -19 -10 -51 -19 -72 -19 -30 0
-41 -6 -68 -40 -17 -22 -37 -40 -44 -40 -6 0 -27 -13 -46 -30 -19 -16 -46 -29
-60 -30 -34 0 -146 -119 -176 -188 -31 -69 -30 -98 7 -168 l32 -59 4 -205 5
-204 44 -50 c26 -31 44 -61 44 -76 1 -14 9 -43 20 -65 26 -53 25 -80 -5 -159
-39 -104 -34 -142 27 -179 14 -9 31 -32 38 -52 7 -22 20 -37 33 -40 34 -9 99
-140 108 -217 6 -51 13 -67 35 -86 48 -42 40 -47 -325 -235 -129 -66 -248
-133 -266 -148 -37 -33 -88 -124 -105 -189 -7 -25 -16 -92 -21 -150 -4 -58
-15 -175 -23 -260 -19 -197 -20 -274 -1 -380 8 -47 15 -140 15 -207 0 -121 -2
-130 -43 -220 -11 -24 -6 -58 22 -163 26 -96 17 -188 -23 -229 -33 -34 -33
-46 4 -101 16 -25 30 -49 30 -53 0 -7 -79 -125 -101 -150 -4 -5 -40 0 -81 12
l-74 20 -79 -24 c-44 -13 -151 -47 -237 -75 -87 -27 -176 -53 -198 -56 -49 -8
-86 13 -95 55 -3 16 -13 35 -21 42 -8 6 -14 16 -14 22 0 5 -22 55 -49 111 -27
56 -65 137 -85 181 -21 44 -42 87 -47 95 -5 8 -12 22 -15 31 -3 8 -24 53 -47
100 -43 84 -43 84 -102 105 -33 12 -103 32 -155 44 -52 13 -108 29 -125 35
-16 7 -61 20 -100 29 -95 24 -170 45 -233 67 -30 11 -65 19 -78 19 -13 0 -54
9 -91 21 -38 11 -90 26 -118 34 -27 8 -73 21 -102 29 -28 9 -62 16 -75 16 -13
1 -34 7 -48 15 -32 18 -79 19 -86 2 -3 -8 36 -97 87 -198 144 -288 244 -493
442 -900 91 -186 143 -282 161 -297 15 -11 64 -35 108 -52 44 -17 87 -35 96
-40 17 -9 119 -48 252 -96 76 -28 109 -54 145 -115 21 -35 93 -79 131 -79 11
0 40 -10 65 -22 60 -29 131 -35 163 -14 36 23 97 20 169 -10 34 -14 100 -30
147 -35 83 -11 117 -22 173 -57 27 -17 28 -17 132 36 58 29 126 68 153 86 72
50 128 76 162 76 35 0 36 -7 15 -76 -8 -27 -15 -87 -15 -133 0 -79 -15 -154
-45 -226 -7 -16 -20 -55 -29 -85 -8 -30 -29 -99 -46 -153 -16 -53 -30 -108
-30 -121 0 -84 -173 -787 -206 -836 -29 -44 -39 -73 -48 -133 -4 -26 -20 -80
-35 -120 -35 -90 -86 -271 -101 -357 -6 -36 -16 -87 -22 -114 -6 -27 -14 -79
-19 -115 -37 -290 -128 -722 -176 -831 -11 -25 -25 -72 -32 -105 -7 -33 -20
-77 -28 -97 -20 -49 -22 -213 -4 -408 15 -169 8 -1066 -10 -1185 -5 -38 -14
-221 -18 -405 -8 -295 -29 -657 -47 -790 -6 -44 -17 -69 -104 -220 -86 -150
-157 -247 -250 -341 -80 -81 -109 -103 -180 -137 -71 -35 -101 -43 -182 -52
-54 -5 -131 -10 -172 -10 -92 0 -171 -27 -220 -74 -51 -50 -53 -69 -15 -118
39 -48 181 -121 269 -138 67 -13 262 -13 315 0 22 5 91 15 154 21 127 12 254
48 365 104 39 19 80 35 93 35 12 0 41 7 63 16 53 21 97 14 156 -27 62 -42 103
-45 289 -21 163 22 196 32 215 68 16 29 0 451 -26 687 l-18 157 33 83 c18 45
37 90 42 101 33 60 43 102 63 271 4 28 13 91 21 140 13 83 25 193 45 405 5 47
17 164 27 260 18 176 22 320 26 925 2 325 6 361 36 385 19 15 75 96 122 177
30 50 62 104 71 120 10 15 22 35 27 43 30 50 59 130 95 260 9 33 38 88 71 135
30 44 55 85 55 92 0 6 6 16 13 20 12 7 137 222 137 236 0 3 13 25 29 49 16 24
32 54 36 67 9 30 66 125 77 129 4 2 8 8 8 14 0 17 62 107 78 113 8 3 19 2 23
-2 4 -4 15 -89 24 -188 9 -98 19 -183 21 -187 3 -5 9 -75 14 -156 5 -83 18
-180 29 -222 10 -41 27 -134 36 -205 17 -124 49 -269 76 -345 7 -19 25 -69 41
-110 24 -62 31 -98 38 -210 10 -148 38 -244 98 -334 33 -50 33 -55 58 -326 15
-160 15 -208 5 -355 -7 -93 -17 -205 -22 -247 -11 -83 -7 -135 18 -269 16 -81
16 -93 -1 -180 -9 -52 -22 -108 -27 -125 -5 -18 -14 -56 -20 -85 -12 -62 -23
-121 -39 -199 -7 -30 -18 -89 -26 -130 -8 -41 -21 -106 -30 -145 -8 -38 -14
-84 -14 -102 0 -17 -5 -44 -11 -60 -6 -15 -17 -81 -24 -146 -9 -82 -18 -124
-29 -135 -25 -25 -63 -82 -88 -129 -20 -40 -21 -43 -5 -61 23 -26 21 -61 -6
-102 -13 -19 -27 -48 -31 -63 -4 -16 -30 -65 -58 -110 -60 -98 -93 -188 -79
-216 16 -30 67 -68 108 -82 49 -16 312 -5 408 17 39 9 88 19 110 23 66 12 180
60 205 86 14 15 24 39 25 62 2 35 6 39 39 48 21 6 53 25 72 42 l35 31 -4 154
c-3 84 -8 167 -12 185 -6 25 1 48 34 117 23 47 41 88 41 91 0 3 13 24 30 47
16 22 30 47 30 55 0 7 5 22 12 33 10 15 9 29 -7 72 -25 67 -25 245 0 281 8 12
15 33 15 47 0 14 7 34 15 44 8 11 15 30 15 43 0 13 4 31 9 41 24 48 54 152 71
246 5 27 14 54 20 60 5 5 10 47 10 92 0 46 5 95 11 111 7 15 16 98 20 183 5
85 14 223 21 305 18 211 15 768 -4 798 -13 20 -28 70 -68 227 -6 25 -16 69
-21 99 -5 29 -15 63 -21 74 -6 11 -14 53 -19 93 -4 40 -12 81 -18 91 -51 91
-62 157 -36 229 9 27 14 88 15 185 0 140 8 229 49 589 11 96 34 308 51 470 31
304 39 349 71 412 22 44 36 52 190 108 l116 42 -8 42 c-10 56 -50 208 -83 321
-41 138 -75 313 -96 499 -11 93 -27 197 -35 230 -8 34 -20 106 -26 161 -14
124 -24 453 -15 500 l7 35 164 0 164 0 34 33 c79 75 188 221 236 314 23 47 26
57 11 48 -18 -11 -11 18 10 40 15 15 22 45 30 120 7 55 18 136 26 180 8 44 19
118 24 165 6 47 15 99 20 115 5 17 16 95 25 175 9 80 25 196 36 258 42 250 18
522 -68 771 -20 58 -42 131 -49 161 -11 52 -18 72 -51 165 -25 67 -45 103 -80
145 -33 38 -55 51 -177 104 -32 15 -86 45 -120 68 -64 43 -651 483 -722 540
-61 50 -224 235 -240 274 -16 38 -20 347 -5 386 33 86 43 169 39 339 -4 229
-17 266 -137 416 -78 97 -94 113 -171 155 -79 45 -111 58 -201 87 -38 12 -229
13 -294 1z"/>
</g>
</svg>
